<?xml version="1.0" encoding="UTF-8" standalone="no" ?>
<!DOCTYPE svg PUBLIC "-//W3C//DTD SVG 1.1//EN" "http://www.w3.org/Graphics/SVG/1.1/DTD/svg11.dtd">
<svg xmlns="http://www.w3.org/2000/svg" xmlns:xlink="http://www.w3.org/1999/xlink" version="1.1" width="1080" height="1080" viewBox="0 0 1080 1080" xml:space="preserve">
<desc>Created with Fabric.js 5.2.4</desc>
<defs>
</defs>
<rect x="0" y="0" width="100%" height="100%" fill="transparent"></rect>
<g transform="matrix(1 0 0 1 540 540)" id="6f5e82c4-c82b-4d64-b819-909d1ddb68dc"  >
</g>
<g transform="matrix(1 0 0 1 540 540)" id="cfde17a1-ee7f-4d81-9efb-5f174e78bc38"  >
<rect style="stroke: none; stroke-width: 1; stroke-dasharray: none; stroke-linecap: butt; stroke-dashoffset: 0; stroke-linejoin: miter; stroke-miterlimit: 4; fill: rgb(255,255,255); fill-rule: nonzero; opacity: 1; visibility: hidden;" vector-effect="non-scaling-stroke"  x="-540" y="-540" rx="0" ry="0" width="1080" height="1080" />
</g>
<g transform="matrix(1 0 0 1 682.01 540)" style="" id="b4fbc33a-bc69-4c31-9f45-cd7b934791ac"  >
		<text xml:space="preserve" font-family="Raleway" font-size="105" font-style="normal" font-weight="900" style="stroke: none; stroke-width: 1; stroke-dasharray: none; stroke-linecap: butt; stroke-dashoffset: 0; stroke-linejoin: miter; stroke-miterlimit: 4; fill: rgb(57,224,121); fill-rule: nonzero; opacity: 1; white-space: pre;" ><tspan x="-264.18" y="32.98" >CodeMate</tspan></text>
</g>
<g transform="matrix(NaN NaN NaN NaN 0 0)"  >
<g style=""   >
</g>
</g>
<g transform="matrix(1.06 0 0 1.06 244.06 540)"  >
<path style="stroke: none; stroke-width: 1; stroke-dasharray: none; stroke-linecap: butt; stroke-dashoffset: 0; stroke-linejoin: miter; stroke-miterlimit: 4; fill: rgb(57,224,121); fill-rule: evenodd; opacity: 1;" vector-effect="non-scaling-stroke"  transform=" translate(-169.49, -137.01)" d="M 247.841 80.216 C 259.62 80.216 269.184 70.856 269.184 59.3744 C 269.184 47.872 259.599 38.5328 247.841 38.5328 C 236.062 38.5328 226.499 47.8928 226.499 59.3744 C 226.499 64.1168 228.139 68.5056 230.887 72 L 190.267 106.05 C 189.224 106.923 189.117 108.442 190.012 109.461 C 190.502 110.022 191.205 110.293 191.886 110.293 C 192.461 110.293 193.036 110.106 193.505 109.71 L 234.316 75.4528 C 237.979 78.4272 242.708 80.216 247.841 80.216 Z M 132.182 160.213 L 102.256 190.747 C 98.6775 188.106 94.2258 186.525 89.3907 186.525 C 77.6118 186.525 68.0481 195.885 68.0481 207.366 C 68.0481 218.869 77.6331 228.208 89.3907 228.208 C 101.17 228.208 110.733 218.848 110.733 207.366 C 110.733 202.312 108.88 197.694 105.813 194.075 L 135.718 163.52 C 136.655 162.563 136.634 161.024 135.633 160.109 C 134.674 159.214 133.12 159.235 132.182 160.213 Z M 138.019 108.774 C 138.934 107.797 138.892 106.258 137.891 105.363 L 108.007 78.4064 C 110.584 74.9536 112.118 70.7104 112.118 66.1344 C 112.118 54.632 102.533 45.2928 90.7752 45.2928 C 78.9963 45.2928 69.4326 54.6528 69.4326 66.1344 C 69.4326 77.6368 79.0176 86.976 90.7752 86.976 C 96.0789 86.976 100.914 85.0832 104.663 81.9424 L 134.525 108.92 C 134.994 109.357 135.612 109.565 136.208 109.565 C 136.868 109.565 137.529 109.294 138.019 108.774 Z M 228.245 161.835 C 228.245 173.338 237.83 182.677 249.588 182.677 C 261.367 182.677 270.931 173.317 270.931 161.835 C 270.931 150.333 261.346 140.994 249.588 140.994 C 241.217 140.994 233.954 145.736 230.461 152.6 L 209.395 145.237 C 208.117 144.779 206.69 145.445 206.242 146.693 C 205.774 147.941 206.455 149.334 207.733 149.771 L 228.799 157.134 C 228.437 158.653 228.245 160.234 228.245 161.835 Z M 193.548 194.637 C 195.465 194.096 197.488 193.784 199.576 193.784 C 211.354 193.784 220.918 203.144 220.918 214.646 C 220.918 226.149 211.333 235.488 199.576 235.488 C 187.797 235.488 178.233 226.128 178.233 214.646 C 178.233 206.909 182.578 200.149 189.011 196.55 L 174.718 163.749 C 174.186 162.522 174.761 161.107 176.018 160.587 C 177.274 160.067 178.723 160.629 179.255 161.856 L 193.548 194.637 Z M 168.179 113.642 L 158.743 113.642 C 144.153 113.642 131.948 124.312 130.308 138.435 C 129.967 141.451 130.84 144.134 132.907 146.402 C 134.973 148.669 137.614 149.813 140.724 149.813 L 186.178 149.813 C 189.288 149.813 191.908 148.669 193.995 146.402 C 196.061 144.134 196.934 141.451 196.594 138.435 C 194.975 124.312 182.749 113.642 168.179 113.642 Z M 180.938 89.8672 C 180.938 80.4656 173.1 72.8112 163.472 72.8112 C 153.844 72.8112 146.006 80.4656 146.006 89.8672 C 146.006 99.2688 153.844 106.923 163.472 106.923 C 173.1 106.923 180.938 99.2688 180.938 89.8672 Z" stroke-linecap="round" />
</g>
<g transform="matrix(NaN NaN NaN NaN 0 0)"  >
<g style=""   >
</g>
</g>
</svg>